<?xml version="1.0" encoding="utf-8"?>
<!-- Generator: Adobe Illustrator 22.0.1, SVG Export Plug-In . SVG Version: 6.00 Build 0)  -->
<svg version="1.1" id="Layer_1" xmlns="http://www.w3.org/2000/svg" xmlns:xlink="http://www.w3.org/1999/xlink" x="0px" y="0px"
	 width="48px" height="48px" viewBox="0 0 48 48" style="enable-background:new 0 0 48 48;" xml:space="preserve">
<style type="text/css">
	.st0{fill:#90A4AE;}
	.st1{fill:#1565C0;}
</style>
<path class="st0" d="M32.25,29.77v2.58H15.75v-2.58h-2.06v2.58c0,1.13,0.93,2.06,2.06,2.06h16.51c1.13,0,2.06-0.93,2.06-2.06v-2.58
	H32.25z"/>
<g>
	<polygon class="st1" points="24,14 27.61,18.33 20.39,18.33 	"/>
	<rect x="22.97" y="15.33" class="st1" width="2.06" height="7.22"/>
	<path class="st1" d="M17.86,23.33l-0.57-0.36l-0.98,1.81l0.62,0.31c1.55,0.83,2.42,1.34,2.68,1.81c0.26,0.46,0.26,1.34,0.26,2.89
		h2.06C21.94,25.8,21.73,25.44,17.86,23.33z"/>
	<polygon class="st1" points="15.75,26.89 13.68,22.24 18.84,21.52 	"/>
	<path class="st1" d="M26.06,29.77h2.06c0-1.55,0-2.42,0.26-2.89c0.26-0.46,1.13-0.98,2.68-1.81l0.62-0.31l-0.98-1.81l-0.57,0.36
		C26.27,25.44,26.06,25.8,26.06,29.77z"/>
	<polygon class="st1" points="29.16,21.52 34.32,22.24 32.25,26.89 	"/>
</g>
</svg>
